<?xml version="1.0" standalone="no"?>
<!DOCTYPE svg PUBLIC "-//W3C//DTD SVG 1.1//EN" "http://www.w3.org/Graphics/SVG/1.1/DTD/svg11.dtd" >
<svg xmlns="http://www.w3.org/2000/svg">
<metadata>Generated by IcoMoon</metadata>
<defs>
<font id="icomoon" horiz-adv-x="512">
<font-face units-per-em="512" ascent="480" descent="-32" />
<missing-glyph horiz-adv-x="512" />
<glyph unicode="&#x20;" d="" horiz-adv-x="256" />
<glyph unicode="&#xe600;" d="M349.526 155.050c23.894 30.72 38.229 69.291 38.229 110.933 0 100.010-81.238 181.248-181.248 181.248s-181.248-80.896-181.248-180.906 81.237-181.248 181.248-181.248c41.984 0 80.214 14.336 110.933 38.23l145.408-145.408 32.086 32.086-145.408 145.067zM206.506 118.87c-81.237 0-147.114 65.877-147.114 147.115s65.877 147.114 147.114 147.114 147.114-65.877 147.114-147.114-65.877-147.115-147.114-147.115z" />
<glyph unicode="&#xe601;" d="M365.226 336.981c0-62.021-50.278-112.298-112.298-112.298s-112.298 50.278-112.298 112.298c0 62.021 50.278 112.298 112.298 112.298s112.298-50.278 112.298-112.298zM252.928 202.154c-123.904 0-224.256-100.352-224.256-224.256h448.853c-0.341 123.904-100.693 224.256-224.597 224.256z" />
<glyph unicode="&#xe602;" d="M257.365 435.627l59.392-171.008 181.248-3.755-144.384-109.568 52.565-173.397-148.821 103.424-148.821-103.424 52.566 173.398-144.726 109.568 181.248 3.755z" />
<glyph unicode="&#xe603;" d="M252.587 431.19l-239.274-201.387h50.517v-251.904h125.952v151.211h125.952v-151.211h125.952v251.904h50.517z" />
<glyph unicode="&#xe604;" d="M378.538 404.565h-0.341v0.683h0.341v46.762h-47.445v-94.89h47.445zM165.206 404.565v47.446h-47.446v-94.891h47.446zM402.091 404.565v-70.998h-94.89v70.998h-118.442v-70.998h-94.891v70.998h-70.998v-426.666h450.219v426.666h-70.998zM449.536 1.45h-403.115v260.779h403.115v-260.779zM141.312 25.344h23.552v47.445h70.998v-47.445h23.552v47.445h71.68v-47.445h23.552v47.445h70.998v23.552h-70.998v70.998h70.998v23.552h-70.998v47.786h-23.552v-47.445h-70.998v47.446h-23.552v-47.446h-71.338v47.446h-23.552v-47.446h-71.338v-23.552h70.998v-70.998h-70.998v-23.552h70.998v-47.786zM260.096 167.339h70.998v-70.998h-70.998v70.998zM165.206 167.339h70.998v-70.998h-70.998v70.998z" />
<glyph unicode="&#xe605;" d="M260.096 430.507c-116.736 0-211.286-94.55-211.286-211.286s94.549-211.286 211.286-211.286c116.736 0 211.286 94.55 211.286 211.286s-94.55 211.286-211.286 211.286zM199.68 118.528v201.387l181.248-100.694-181.248-100.693zM260.096 460.885c-133.462 0-241.664-108.202-241.664-241.664s108.203-241.664 241.664-241.664c133.462 0 241.664 108.202 241.664 241.664s-108.202 241.664-241.664 241.664zM260.096-2.304c-122.197 0-221.525 99.328-221.525 221.525s99.328 221.525 221.525 221.525 221.184-99.328 221.184-221.525-99.328-221.525-221.184-221.525z" />
<glyph unicode="&#xe606;" d="M18.090 436.651h204.118v-204.118h-204.118v204.117zM273.067 436.651h204.118v-76.459h-204.118v76.459zM273.067 308.992h204.118v-76.458h-204.118v76.459zM18.090 181.675h204.118v-204.118h-204.118v204.118zM273.067 181.675h204.118v-76.459h-204.118v76.459zM273.067 54.016h204.118v-76.459h-204.118v76.459z" />
<glyph unicode="&#xe607;" d="M16.384 438.358h204.8v-204.8h-204.8v204.8zM16.384 182.358h204.8v-204.8h-204.8v204.8zM272.384 438.358h204.8v-204.8h-204.8v204.8zM272.384 182.358h204.8v-204.8h-204.8v204.8z" />
<glyph unicode="&#xe608;" d="M409.942 134.912c-16.043 0-30.72-4.779-43.349-12.971l-183.296 91.478 183.296 91.818c12.288-8.192 27.306-12.97 43.349-12.97 43.349 0 78.507 35.157 78.507 78.507s-35.157 78.506-78.507 78.506c-41.642 0-75.435-32.768-78.166-73.728l-193.195-96.256c-12.288 8.192-27.306 12.97-43.008 12.97-43.349 0-78.507-35.157-78.507-78.506s35.157-78.507 78.507-78.507c16.043 0 30.72 4.779 43.35 12.971l193.195-96.598c2.731-40.96 36.522-73.728 78.166-73.728 43.349 0 78.507 35.157 78.507 78.507s-35.157 78.507-78.848 78.507z" />
<glyph unicode="&#xe609;" d="M34.816 443.136v-465.579l202.411 121.514 202.411-121.514v465.579h-404.822zM320.171 159.829l-73.046 50.517-72.704-50.517 25.941 84.65-70.656 53.59 88.746 1.707 29.013 83.627 29.013-83.627 88.747-1.707-70.998-53.589 25.942-84.65z" />
<glyph unicode="&#xe60a;" d="M256 425.387c-123.563 0-223.573-100.011-223.573-223.574s100.011-223.573 223.573-223.573 223.573 100.010 223.573 223.573c0 123.563-100.010 223.573-223.573 223.573zM256 22.954c-98.645 0-178.858 80.214-178.858 178.858s80.214 178.858 178.858 178.858c98.645 0 178.858-80.214 178.858-178.858s-80.214-178.858-178.858-178.858zM289.45 291.243c0-18.474-14.976-33.45-33.451-33.45s-33.451 14.976-33.451 33.45c0 18.474 14.976 33.45 33.451 33.45s33.451-14.976 33.451-33.45zM278.187 201.813v0 22.187h-66.901v-22.187h22.528v-89.43h-22.528v-22.528h89.43v22.528h-22.528z" />
<glyph unicode="&#xe60b;" d="M294.57 292.95h-83.286v-124.928h-41.642l83.286-104.106 83.286 104.106h-41.642zM252.928 413.099c-120.149 0-217.429-97.28-217.429-217.43s97.28-217.429 217.429-217.429 217.429 97.28 217.429 217.429c0 120.149-97.28 217.429-217.429 217.429zM252.928 21.589c-95.915 0-174.080 78.166-174.080 174.080s78.165 174.080 174.080 174.080c95.914 0 174.080-78.166 174.080-174.080-0.341-95.914-78.166-174.080-174.080-174.080z" />
<glyph unicode="&#xe60c;" d="M497.664 268.032h-193.195v193.536h-96.939v-193.536h-193.195v-96.598h193.195v-193.195h96.939v193.195h193.195z" />
<glyph unicode="&#xe60d;" d="M339.968-21.76l58.026 58.026-174.422 174.421 174.422 174.422-58.026 58.026-232.448-232.448z" />
<glyph unicode="&#xe60e;" d="M180.565 443.136l-58.026-58.026 174.422-174.422-174.422-174.422 58.026-58.026 232.448 232.448z" />
<glyph unicode="&#xe60f;" d="M475.136 306.262l-54.954 54.613-164.182-164.181-164.181 164.181-54.955-54.613 219.136-219.136z" />
<glyph unicode="&#xe610;" d="M33.792 141.738l54.954-54.613 164.181 164.181 164.182-164.181 54.613 54.613-218.794 219.136z" />
<glyph unicode="&#xe611;" d="M490.496 398.421c0.341 1.024 0.341 2.048 0.341 3.072-8.192 0-10.582 3.755-15.36 6.486-2.048 1.024-4.096 1.707-6.144 2.731-1.365 1.024-2.731 1.707-3.755 2.731-3.413 1.024-7.168 2.048-10.582 3.072-2.389 1.365-4.438 3.072-6.827 4.438-4.438-1.024-11.606 0.683-15.702 2.731 0 0.683-0.341 1.365-0.341 2.048-2.048 0-4.779 0.683-6.144 0-1.024 0.341-0.683 1.024-2.048 1.365-1.024-0.683-1.707-1.365-3.413-1.365-4.438 2.731-9.558 4.779-15.702 6.144-5.462 1.024-7.51-0.683-11.947 2.389 0 1.365-0.341 1.365-0.683 2.048-9.216 1.707-22.528 0-31.402-1.707-4.096-0.683-8.534 1.024-10.923 0.683-0.683-0.341-8.192-4.096-8.534-4.438 0 0 0 0-0.341 0-2.389-3.072-1.365-9.216-2.048-13.654-1.024-5.462-3.413-14.336-2.048-20.48 1.024-2.048 2.048-4.438 3.072-6.486 1.024-4.096-2.389-6.486-2.731-9.899 0 0 0 0 0.341-0.341 8.534 0.341 8.192 7.168 12.63 11.264 0 0 0.341-0.341 0.341-0.341-1.707-5.803-4.779-10.923-5.803-16.043-0.683-3.413 1.024-8.875 1.365-11.947s-1.707-6.486-2.389-8.875c-1.024-3.413-1.365-14.336-3.755-15.702-3.413-2.389-8.534-1.365-13.654-2.048-8.534-1.365-16.726-2.048-24.576-3.755-3.072-1.024-6.144-2.048-8.875-3.072-6.144-1.024-12.63 1.707-18.091 2.731-13.995 1.365-27.989 2.731-41.984 4.438-8.875 1.365-26.624 1.707-36.181 0.341-5.462-1.024-9.899 0.341-15.702-0.683-8.875-1.365-19.456-2.731-29.355-1.365-2.389 0-4.779 0-7.168 0-6.827 1.365-11.946 4.779-17.408 7.168-2.731 1.024-5.462 2.048-7.85 3.072-2.389 2.389-4.778 4.438-7.168 6.827-2.389 2.048-4.778 3.755-7.168 5.462-9.558 9.558-16.043 22.87-21.504 36.523-4.438 11.264-5.802 22.528-11.947 32.085-3.413 5.462-13.654 19.456-18.773 22.87-4.438 2.731-8.874 4.438-13.654 6.486-0.682 0-1.024 0-1.365-0.341-0.682-1.707-0.342-4.096-0.682-6.144s-2.389-8.534-2.048-10.582c0.342-1.707 2.389-4.096 3.413-5.462 5.12-7.168 10.24-14.336 14.678-21.846 5.12-7.851 5.462-15.702 8.874-25.258 1.706-4.779 4.779-10.582 6.144-15.702 0.683-2.731 1.024-5.462 1.707-7.168 0.683-1.024 1.707-2.389 2.389-3.413 0.341-2.389 0.683-4.779 1.365-7.168 1.707-3.413 3.413-6.486 4.778-9.899-1.024-0.341-0.683 0-1.024-0.683 2.048-5.12 7.51-6.827 10.24-11.264 1.024-1.707 1.024-3.413 2.389-4.779-0.341-1.365-0.683-2.731-1.365-4.438 1.707-4.438 7.51-7.51 11.264-10.24 1.707-1.707 3.413-3.413 4.778-5.462 3.755-2.389 8.192-2.048 9.898-6.827-0.683-0.341-1.024-0.683-1.365-1.365 0.341-0.341 0.683-0.683 0.683-1.024-0.683-1.365-1.365-1.365-2.389-2.389 0 0 0-0.341 0-0.341 0.683-0.341 1.024-0.683 1.707-1.024-1.365-2.048-3.413-3.072-4.778-5.12 0.683-1.365 0.683-1.365-0.683-2.389-1.365-1.365-2.731-2.389-3.755-3.755-3.413-5.462-7.168-11.264-8.874-18.091-2.731-9.557 0.683-19.797-1.024-30.037 0-2.389 0.341-4.779 0.341-7.168-1.024-7.168-2.048-14.336-3.072-21.163-1.707-8.875-4.096-19.115-6.144-27.648-1.365-6.486 0.341-13.654-1.365-20.48-1.024-4.779-3.754-10.923-5.12-16.043-0.683-3.413-1.024-6.486-1.707-9.899-1.365-2.731-3.072-6.144-4.778-8.875-3.072-4.438-6.826-6.827-8.534-12.971-0.342-6.486-1.024-12.971-1.365-19.456-1.024-4.438-2.048-8.875-3.072-12.971-0.342-4.096-1.024-8.192-1.365-12.63-1.365-4.779-4.438-7.851-6.144-11.947-1.024-2.389-0.682-4.438-1.365-6.827 0.682-1.365 1.365-2.389 2.389-3.072-0.342-0.683-0.682-1.365-1.024-2.048 0.342-0.341 1.024-0.683 1.365-1.024-0.682-4.779 2.73-14.336 6.144-16.384 3.072-2.048 7.168-1.365 11.606-2.048 5.802-1.024 12.288-1.024 16.043 2.048 1.024 1.024 1.707 1.707 2.731 2.731 1.365 0.683 2.048 0.683 3.072 2.048-1.024 1.365-3.754 7.168-4.778 8.192-1.707 1.365-8.534 5.803-8.874 7.168 0 1.365 0 3.072 0 4.438-1.365 8.534 1.365 18.432 3.072 26.624 0.683 0.341 1.365 0.683 2.048 1.024 0.341 2.389 1.707 4.096 2.048 5.803 1.024 3.072 0.683 6.486 2.048 8.875s2.731 4.438 4.096 6.827c1.365 3.072 1.024 6.827 2.731 9.558 1.365 2.048 3.754 3.072 5.12 4.779 2.389 3.755 5.462 6.827 7.85 10.24 2.048 3.413 3.755 7.168 5.802 10.582 2.389 3.413 4.778 7.851 7.51 11.264 1.024 1.365 3.072 1.707 3.754 3.072 4.779 10.582 9.558 20.139 15.36 29.696 1.365 2.389 2.731 7.851 5.462 8.875 0 0 0-0.341 0-0.341 1.707-3.413-0.341-7.168 0.341-11.264 0.683-3.072 1.707-6.144 2.389-9.558 2.048-11.264-4.779-24.918-8.534-32.086-1.707-2.731-3.413-5.462-4.779-8.534-0.683-3.413 2.389-8.192 3.072-12.288 0.341-5.12 0.683-10.24 1.024-15.36-0.683-3.755-0.683-8.192 0.341-12.288 0.683-2.731 3.072-3.413 3.755-5.462 1.707-5.462 1.365-10.923 2.731-16.384 1.024-0.341 1.707-1.024 2.731-1.365 0-3.072 1.707-3.413 2.731-5.462 0.341-1.024 0.683-2.048 1.024-3.072 2.048-2.389 5.12-1.024 8.192-2.389 1.024-0.341 2.048-2.048 3.755-2.389 5.12-1.365 14.678-1.365 19.456 0.341 1.707 0.683 4.438 3.072 6.486 4.096-1.024 10.24-11.264 10.923-17.75 16.043-4.096 3.072-6.827 11.606-8.192 17.408-2.048 8.534 0 17.408 1.707 24.235 0.341 3.413 0.683 7.168 1.024 10.582 1.707 3.072 3.413 5.803 5.12 8.875 1.024 2.048 1.707 4.438 2.731 6.827 1.365 1.365 2.731 2.389 4.096 3.755 3.072 3.755 6.486 8.192 8.875 12.288 2.731 4.779 4.096 12.288 5.803 17.75 1.024 3.755 1.024 7.51 2.048 11.606 1.365 5.803 2.731 11.606 4.438 17.067 1.024 3.755 0.683 9.216 3.072 11.264 9.216-2.389 11.264-10.923 19.114-14.336 0.341 0.341 0.341 1.024 0.683 1.365 1.024-0.683 1.024-0.683 2.048-0.341 0.683 1.707 1.707 2.048 3.413 2.731 0.341 3.755-1.365 10.24-0.341 12.63 0.341 0.341 0.683 0.683 0.683 1.024 2.048-0.341 4.438-0.683 5.462-1.024 1.365-0.341 2.048 0.341 2.731 0.683 2.389 0.683 5.462-0.683 6.827-1.365 7.851-4.096 5.462-12.288 16.384-15.019 0-1.024 0-1.024 0.683-1.365 2.389-1.365 4.779-2.389 7.51-3.072 0-0.341 0-1.024 0-1.365 1.707 0 3.072-0.341 4.096-1.024 0-4.438 2.731-2.731 5.12-4.779 1.024-0.683 1.024-2.389 2.389-2.731 1.024-0.341 2.731 0.341 3.755-0.341 2.048-0.683 2.731-3.072 4.438-3.755 1.024 0 1.707 0 2.731-0.341 2.731-1.365 5.462-2.731 8.192-4.438 1.365-0.341 3.072-0.683 4.438-1.024 1.024-0.683 2.048-2.389 2.731-3.072-1.365-8.875-0.341-6.827 3.072-13.312 1.024-2.048 0-5.12 0.683-7.168s2.048-4.438 2.731-6.827c0.683-3.072-1.365-7.168-1.024-9.899 0.341-0.683 1.024-1.707 1.365-2.389-0.341-0.683-0.341-1.365-0.683-2.048-0.341-1.707 0.341-5.12 0.683-6.486 0-1.707-0.341-3.072-0.341-4.779 0.341-1.365 2.048-2.389 2.048-4.438-0.683-0.683-1.365-3.072-1.707-4.096 1.365-1.365 4.096-9.216 4.438-11.264-0.683-0.683-1.024-1.365-1.365-2.048 1.707-3.413 2.048-6.486 2.731-10.24 1.365-0.683 2.048-1.365 2.731-2.731-0.341-1.024-0.683-1.365-1.024-2.048 0.341 0 1.024 0 1.365-0.341-1.024-7.851 2.048-8.534 3.072-14.678-0.341-3.072-0.683-5.803-1.024-8.875-0.341-2.048 2.048-16.726 2.731-18.432 2.048-0.683 2.389-1.707 4.438-2.731 1.024-6.827-2.389-14.336-0.683-21.846 1.365 0.341 2.731 0.683 3.755 0.683 0.683-1.365 2.048-2.048 2.389-3.755 0.683-3.413-0.683-6.486 1.024-8.534 1.365-1.707 3.072-1.024 5.462-1.707 2.048-0.683 3.413-3.072 6.144-3.755 8.192-2.389 26.966-1.365 33.109 2.389 0 0.341 0 0.683 0 1.024-1.024 1.707-2.048 3.072-3.413 4.438 0 0.341 0 0.683 0 0.683 1.024 0.341 1.365 0.683 1.365 2.048-1.024 1.365-2.048 2.731-3.072 4.438 0.683 0.683 1.365 1.365 2.048 2.048 0 0.341 0 0.341 0 0.683 0 0-0.341 0.341-0.341 0.341-4.779-0.341-3.072 1.024-6.827 2.048-1.707 0-3.413 0.341-5.462 0.341-8.875 3.755-8.875 24.576-10.582 36.181-0.683 7.851-1.024 15.702-1.707 23.552-4.096 20.139-3.072 49.152-2.048 70.656 0.341 0 1.024 0 1.365 0.341-0.341 3.072 5.462 17.75 6.486 20.48 1.707 1.024 3.413 2.048 4.779 3.072 1.707-0.683 2.048-1.707 4.438-2.048 0-1.024-0.341-2.731 0.341-4.096 0.683 0.341 1.024 0 1.707-0.341-0.683-4.438 1.365-9.558-0.341-12.971 0-0.683 1.024-1.365 0.683-2.389-1.365-6.486-0.341-13.654-1.365-21.163 0-1.024 0-2.389 0.341-3.413-1.707-9.216-1.365-22.528 0-32.086 0-9.558 0-18.774-0.341-28.33 0-1.024-1.365-1.707-1.024-3.413 1.707-4.438 4.438-8.875 5.462-14.336-0.341-2.048-0.683-3.755-1.024-5.803 0-3.072 0.341-6.144 0.341-9.216 2.048-1.365 3.413-3.072 3.755-6.486-0.341 0-0.683-0.341-1.024-0.341 0.683-2.389 1.707-4.438 4.438-5.12 0.341-3.072-0.341-6.486 1.365-8.875 2.731-4.438 18.432-7.168 25.942-6.144 2.048 0.341 4.096 1.365 5.462 1.707 3.755 0.683 6.827-2.389 9.216-0.683 0 0 0 0.341 0 0.341 1.024 4.096-2.389 9.558-2.731 12.971 0.683 1.024 1.707 1.707 1.024 3.072-0.341 0.341 0 0-0.341 0.341-4.438 1.707-14.336 3.413-16.384 6.827-3.072 4.438-6.486 26.624-5.12 35.158 1.024 5.462 2.048 12.288 1.024 18.432-3.413 19.798 3.755 37.546 8.534 52.565 2.048 6.486 1.024 12.63 2.389 20.48 0.683 4.096-0.683 7.168 0.683 10.582 0.683 2.048 2.389 4.779 3.072 6.827 0.683 2.389 0 4.779 1.024 7.168 1.024 1.024 2.048 2.389 2.731 3.413 0 1.024 0.341 2.048 0.341 2.731 0.683 1.024 1.365 2.048 2.048 3.072 0 0.683 0 1.707 0 2.389 0.683 1.365 2.731 3.413 3.072 5.12 0.683 2.048 0.341 3.755 1.365 6.144 0.683 1.024 2.048 2.048 2.731 3.072 2.731 4.438 3.413 10.923 4.096 16.043 0 6.144 0 12.288 0.341 18.432 1.707 7.851 2.731 15.702 4.438 23.893 0.341 2.048-1.365 4.779-1.707 6.486-0.341 4.096-0.341 8.192-0.683 12.288 0 0 0 0.341-0.341 0.341 0.683 1.707 1.024 3.413 1.365 5.803 0 1.024 0 1.707-0.341 2.731 1.024 3.413 2.731 2.731 4.438 4.779 0.683 2.731 1.365 5.12 2.048 7.851 1.365 0.341 1.707 1.024 3.413 1.365 0 1.024 0 1.707 0 2.731 0.683 0.341 1.024 0.683 1.707 1.024-0.341 0.683-1.024 1.024-1.365 1.707 0.683 1.024 1.365 3.072 1.024 4.438-0.341 0.341-0.683 0.341-1.024 0.341 0.341 1.024 0.341 1.365 0 2.048-1.024 0.341-1.365 0.341-1.707 1.024 1.024 2.389 2.731 3.413 3.755 5.462 0.341 0.683 1.024 7.51 1.707 8.534 0.683 0.341 1.024 0.683 1.707 0.683 0.341 1.024 0.341 2.048 0.683 3.072 1.024 2.389 4.438 4.438 5.803 6.827 1.365 2.048 1.024 4.438 2.048 7.168 0 0 0 0 0.341 0 3.413-1.707 4.438-5.462 9.558-6.144 2.731 1.365 3.755 4.096 5.462 6.827 2.389 3.413 5.803 6.144 8.192 9.899 2.389 6.486 5.12 13.312 7.51 19.798 1.024 8.192 4.779 13.653-1.024 19.456z" />
<glyph unicode="&#xe612;" d="M308.224 65.962h-268.288v309.248h268.288v-103.082h20.822v123.904h-309.589v-350.89h309.589v123.904h-20.822zM308.224 69.376h-268.288v309.248h268.288v-103.082h20.822v123.904h-309.589v-350.89h309.589v123.904h-20.822zM396.288 322.645l-14.678-14.678 77.142-77.141h-315.392v-20.48h315.392l-77.142-77.142 14.678-14.678 102.058 102.058zM396.288 326.058l-14.678-14.678 77.142-77.141h-315.392v-20.48h315.392l-77.142-77.142 14.678-14.678 102.058 102.058z" />
<glyph unicode="&#xe613;" d="M499.37 275.542c-2.731-2.048-11.264-5.462-17.067-9.216s-10.582-5.803-20.48-6.144c-9.899-0.683-14.678 3.755-18.432 13.312-18.432 37.888-40.618 19.114-66.901 12.288-6.827-4.779-17.408-3.072-17.408-3.072s-5.12 0.341-12.288 4.096c-35.498 17.066-56.32 5.803-97.621-3.413-22.528-4.096-34.133-5.12-45.739-1.707s-11.264 7.168-11.264 7.168c3.072-0.683 6.144-1.707 9.558-2.389-3.755 2.048-7.51 4.096-10.923 6.144 0 0 2.048 0.683 4.438 0.341s-7.851 5.12-7.851 5.12-9.216 4.438-15.018 7.851c-5.803 3.413 4.438-0.341 12.63-1.365s-8.192 3.413-16.384 5.12c-8.534 1.707 5.12-0.341 5.12-0.341s-9.899 4.096-12.97 4.779c-3.072 1.024 6.144-0.341 6.144-0.341l-11.264 4.779c0 0 2.731-0.341 2.048 0.683-1.024 0.683-10.582 5.12-10.582 5.12l9.899-1.024-21.845 6.144c0 0 15.702-1.707 12.97 1.024-2.731 2.389-7.851 5.12-7.851 5.12l-8.875 0.683c0 0-0.683 2.389 5.462 4.096s-11.947-0.341-11.947-0.341 2.048 2.389 4.438 4.096c-3.413-1.024-8.192-2.731-8.192-2.731l8.875 6.827-17.067-7.51c0 0-4.438 3.413-11.947 7.851s-23.21 8.534-23.21 8.534 0 4.096-0.341 7.85c-0.341 3.755-0.341 6.144-5.12 9.899s-3.072-0.341-3.072-2.048c0-1.707-1.365-1.707-2.048-6.486s0-4.779-2.048-5.803c-2.048-1.024-7.51-2.731-7.51-2.731s-3.413 2.048-5.803 3.413c-2.389 1.707-4.096 3.072-6.827 6.486-2.389 3.413-2.73 2.048-1.365 0 1.024-2.048 0-3.072 1.706-8.874s5.462-6.486 5.462-6.486-0.342-2.731-0.682-4.438c-0.342-1.365-2.048-2.731-6.486-9.216-4.096-6.486-6.827-14.336-10.24-21.846-3.413-7.168-9.557-12.971-14.336-19.115-4.779-5.803-8.192-13.654-5.462-20.48s6.486-8.534 6.486-8.534-0.683-3.755 5.12-3.413c5.802 0.341 10.24 2.048 10.24 4.779s1.365 5.803 1.365 5.803 1.365 1.365 5.12 1.707c3.755 0.341 9.557 1.707 13.995 4.096 4.438 2.731 11.606 4.438 14.336 5.462 3.072 1.024 2.389 3.072 8.534 1.024s10.922-8.534 12.971-16.726c2.048-7.851 13.995-35.499 13.995-35.499s-3.413-23.21-1.024-35.84c2.389-12.63 21.504-23.552 22.87-24.576s-4.778-11.947-6.486-15.019c-1.707-3.072-7.168-13.654-13.312-21.163s-5.462-11.264-4.096-18.432c1.024-7.168 5.462-8.875 8.534-12.63s5.12-8.875 10.582-15.36c5.461-6.486 7.85-13.654 11.264-16.043s6.144-0.341 10.582-3.072c4.438-2.731 8.534-6.486 11.947-7.51 3.755-0.683 3.072-0.683 8.875-3.413s8.192-1.024 6.486 3.413c-1.707 4.779 0 8.875-4.438 15.36s-9.216 4.096-10.24 2.048c-1.024-2.048-1.365-1.707-4.096-2.048-2.731 0-6.827 2.731-6.827 5.803s-0.683 2.389-4.779 4.096c-3.755 1.707-7.51 6.486-13.995 13.312-6.486 7.168-8.192 11.947-8.192 14.678 0 3.072 0 5.462 2.048 7.851s6.486 5.12 11.946 8.534c5.462 3.072 7.51 7.51 11.264 11.606s4.779 3.413 8.534 7.168c4.096 3.755 10.24 3.072 11.264 1.707 1.365-1.365 2.389-8.534 4.096-15.702s1.365-23.211 5.803-35.498c4.438-12.288 10.923-15.36 15.36-18.432 4.096-3.072 9.216-5.12 16.042-13.654s5.462-10.24 10.24-10.923c4.779-1.024 9.899-1.024 15.018-2.731s8.534-3.755 11.264-4.096c2.731-0.341 4.779-1.024 9.899-2.048 5.462-1.365 5.12 5.462 3.755 8.192s-3.413 8.192-6.486 11.947c-3.072 3.413-9.216 2.731-12.97 1.707s-1.024-4.438-3.072-5.12c-1.707-0.341-3.413 0.341-6.144 3.755s-1.024 0-3.413 2.389c-2.389 2.389-8.534 4.096-10.922 5.12-2.731 1.024-2.731 0.683-5.12 4.096s-3.755 3.755-6.486 5.803c-2.731 2.389-6.486 5.803-8.534 11.606s-2.731 14.678-1.365 20.48c1.365 5.803 0.341 29.014 0.341 34.816s9.558 4.779 30.72 8.875c21.162 4.096 53.248 17.408 56.32 19.115s4.096-4.438 6.827-9.558c3.072-5.12 26.283-20.822 29.355-22.528 2.731-1.707 5.462-4.779 10.923-10.24s0-6.144-3.072-11.606c-3.413-5.803-22.187-23.894-26.624-28.331s-3.072-6.144-2.731-10.24c0.341-3.755 0-6.486 0.341-12.971 0.341-6.827 2.731-9.216 4.779-14.336s3.755-7.51 5.12-6.144c1.024 1.024 4.438 5.803 6.827 11.606s2.048 6.827 1.024 10.24c-1.024 3.755-4.096 3.755-4.096 5.12 0 1.707 0.683 3.755 2.731 4.779s1.365 2.389 1.024 4.096c-0.341 1.707 5.462 6.827 9.216 12.971s15.702 15.702 21.504 21.163c5.462 5.462 9.899 9.216 9.899 9.216s0-7.51-2.048-12.63c-2.048-5.12-6.486-19.115-10.24-24.235-3.755-5.462-6.827-10.24-5.462-12.971s2.389-4.438 3.755-11.264c1.365-6.827 5.462-11.947 9.899-18.091 4.096-6.144 7.168-4.438 9.216-1.024 2.048 3.755 2.048 8.534 2.389 9.216 0 1.024 1.024 4.438 0 8.534-0.683 4.438-4.438 3.755-7.168 5.12-2.731 1.024-2.389 3.755 0.683 5.12s0.341 6.827-0.683 8.875c-1.024 2.389 1.707 4.438 2.731 9.899 1.024 5.803 4.438 9.558 8.534 19.456s10.923 16.384 13.312 20.48c2.389 4.438 6.144 7.51-9.899 18.432-15.702 10.923-16.384 27.307-6.827 41.984 2.389 3.755 5.462 7.851 8.875 12.288 9.216 12.288 9.899 25.258 8.875 30.379-1.365 5.12-7.851 15.36-7.51 16.042s3.755 5.462 6.144 3.072c2.389-2.389 6.486-19.114 9.216-12.63 2.389 6.486-3.413 13.995-0.683 12.288s10.24-9.899 10.923-10.582c0.683-0.683-1.707 9.558-1.707 9.558 1.365-2.389 2.389-4.779 3.755-7.168 1.365 2.389 2.389 4.438 3.755 6.827 0.683-2.389 1.365-4.779 2.048-6.827 1.707 2.731 3.413 5.462 5.12 8.534 1.707-2.048 3.755-4.096 5.462-6.144-0.683 2.389-1.365 4.779-1.707 7.168 1.365-1.024 3.072-2.048 4.438-3.072 0 0-0.683 5.12-0.341 4.096 0.683-1.024 4.779-7.168 4.779-7.168s-2.389 6.827-3.072 8.534c-0.341 1.707 4.438-8.192 4.779-9.216 0.683-1.024 5.803-7.51 8.534-9.899 2.731-2.731-3.413 7.51-3.413 7.51s8.875-8.875 13.312-12.288c4.438-3.413-3.413 4.779-3.413 4.779s8.875-6.486 13.654-9.558c4.779-3.072-2.731 3.755-2.731 3.755s8.875-6.144 10.923-6.827c2.048-1.024-5.12 4.096-5.12 4.096 2.389-1.365 4.779-2.389 7.168-3.755 0 0-2.048 1.707-3.072 2.731-0.341 0-0.341 0-0.341 0.341-0.341 0.341-0.341 0.341 0 0.341s0-0.341 0-0.341c0 0 0 0 0.341-0.341 0.341 0 1.707-0.341 5.12-0.341 8.534 0 5.803 0.683 5.12 1.024s-4.438 0.683 10.923 3.755c15.36 3.413-4.438 1.365-8.192 1.707-3.413 0.341 8.875 2.731 10.923 3.413s-5.462 0-6.144 0c-0.683 0 10.923 5.462 10.923 5.462s-2.731 1.024 2.389 2.389c4.779 1.365-3.413-0.341-5.12-0.683-1.365-0.341 4.096 3.755 10.582 6.144 6.144 4.096 6.827 11.947 3.755 9.899z" />
<glyph unicode="&#xe614;" d="M18.432 229.12l223.573-223.573v447.147z" horiz-adv-x="260" />
<glyph unicode="&#xe615;" d="M18.090 452.693v-447.146l223.915 223.573z" horiz-adv-x="273" />
<glyph unicode="&#xe616;" d="M352 160c-32-32-32-64-64-64s-64 32-96 64-64 64-64 96 32 32 64 64-64 128-96 128-96-96-96-96c0-64 65.75-193.75 128-256s192-128 256-128c0 0 96 64 96 96s-96 128-128 96z" />
<glyph unicode="&#xe617;" d="M432 416l-240-240-112 112-80-80 192-192 320 320z" />
<glyph unicode="&#xe618;" d="M360.704 429.209c-29.209 21.069-65.843 31.591-109.978 31.591-33.587 0-61.901-7.424-84.915-22.221-36.531-23.194-55.936-62.566-58.291-118.118h84.633c0 16.179 4.71 31.769 14.157 46.771s25.472 22.502 48.077 22.502c22.963 0 38.81-6.093 47.462-18.253 8.678-12.211 13.005-25.702 13.005-40.499 0-12.877-6.451-24.653-14.233-35.379-4.275-6.247-9.933-11.981-16.921-17.255 0 0-45.901-29.44-66.073-53.095-11.699-13.722-12.749-34.253-13.773-63.719-0.077-2.099 0.717-6.425 8.064-6.425s59.315 0 65.843 0 7.885 4.839 7.987 6.963c0.461 10.726 1.664 16.205 3.635 22.4 3.712 11.699 13.747 21.913 25.063 30.695l23.296 16.077c21.017 16.384 37.811 29.824 45.209 40.371 12.647 17.357 21.529 38.707 21.529 64.025 0 41.344-14.618 72.525-43.776 93.568zM249.369 104.345c-29.184 0.87-53.248-19.303-54.169-50.944-0.922-31.616 21.965-52.505 51.149-53.376 30.464-0.896 53.888 18.637 54.81 50.253 0.896 31.642-21.325 53.171-51.789 54.067z" />
<glyph unicode="&#xe619;" d="M115.692-32h283.077l29.538 369.231h-342.154l29.538-369.231zM327.385 280.615h29.538l-14.769-256h-29.538l14.769 256zM243.692 280.615h27.077v-256h-27.077v256zM187.077 280.615l14.769-256h-29.538l-14.769 256h29.538zM342.154 423.385v27.077c0 14.769-12.308 29.538-29.538 29.538h-113.231c-14.769 0-27.077-12.308-27.077-29.538v-29.538h-86.154v-56.615h342.154v59.077h-86.154zM312.615 423.385h-113.231v27.077h113.231v-27.077z" horiz-adv-x="515" />
<glyph unicode="&#xe61a;" d="M373.76 332.774l-235.52 0.026 117.76-204.8z" />
<glyph unicode="&#xe61b;" d="M138.24 128h235.52l-117.786 204.8z" />
</font>
</defs>
</svg>
